<?xml version="1.0" encoding="utf-8"?>
<!-- Svg Vector Icons : http://www.onlinewebfonts.com/icon -->
<!DOCTYPE svg PUBLIC "-//W3C//DTD SVG 1.1//EN" "http://www.w3.org/Graphics/SVG/1.1/DTD/svg11.dtd">
<svg version="1.1" xmlns="http://www.w3.org/2000/svg" xmlns:xlink="http://www.w3.org/1999/xlink" x="0px" y="0px" viewBox="0 0 1000 1000" enable-background="new 0 0 1000 1000" xml:space="preserve">
<metadata> Svg Vector Icons : http://www.onlinewebfonts.com/icon </metadata>
<g><g transform="translate(0.000000,146.000000) scale(0.100000,-0.100000)"><path d="M2394.5-516.4c-55.7-34.3-68.6-261.6-85.8-1488.2l-21.4-1449.6l-373.1-12.9l-377.4-12.9v304.5c0,163-12.9,300.2-30,300.2C1459.6-2875.2,100-4080.4,100-4119c0-42.9,1351-1243.8,1398.2-1243.8c21.4,0,38.6,137.2,38.6,300.2v304.5l377.4-12.9l373.1-12.9l12.9-853.5c4.3-544.6,25.7-874.9,55.8-913.5c38.6-47.1,729.1-55.7,3752.7-55.7c3615.5,0,3705.6,0,3748.5,81.5c25.7,55.8,42.9,1072.2,42.9,2997.9c0,2766.3-4.3,2916.4-77.2,2980.7c-72.9,68.6-390.3,72.9-3722.7,72.9C3882.8-473.5,2433.1-490.6,2394.5-516.4z M5645.5-1168.3c30-30,51.5-132.9,51.5-231.6c0-313.1-17.2-317.4-1329.5-317.4c-1312.4,0-1329.5,4.3-1329.5,317.4c0,98.7,21.4,201.6,51.5,231.6C3162.2-1095.4,5572.5-1095.4,5645.5-1168.3z M7704.1-1168.3c30-30,51.5-132.9,51.5-231.6c0-248.7-102.9-317.4-471.8-317.4s-471.8,68.6-471.8,317.4c0,98.7,21.4,201.6,51.5,231.6c30,30,188.7,51.5,420.3,51.5C7515.4-1116.8,7674.1-1138.3,7704.1-1168.3z M9128-1198.3c68.6-133,51.5-338.8-42.9-433.2c-150.1-150.1-754.8-107.2-866.3,60c-55.8,85.8-34.3,295.9,38.6,377.4c55.7,64.3,137.2,77.2,446,77.2C9033.6-1116.8,9089.4-1125.4,9128-1198.3z M9093.7-2261.9c72.9-64.3,77.2-180.1,77.2-1861.3c0-1569.7-8.6-1801.3-68.6-1857.1c-60.1-60-390.3-68.6-3015.1-68.6c-2693.4,0-2959.3,4.3-3010.8,72.9c-47.2,55.7-64.3,398.9-72.9,1724.1c-8.6,909.2,0,1715.5,12.9,1792.7c51.5,287.3-145.8,270.2,3075.1,270.2C8750.6-2189,9020.8-2193.3,9093.7-2261.9z"/><path d="M7026.5-2703.7c-231.6-72.9-1145.1-424.6-1265.2-484.6c-68.6-38.6-360.3-145.8-643.3-248.8c-283.1-98.6-604.7-227.3-716.3-287.3c-634.7-334.5-673.3-1260.9-68.6-1668.4c227.3-150.1,549-214.4,767.7-150.1c210.2,60.1,1192.3,433.2,1321,497.5c60,34.3,398.9,163,746.2,287.3c686.2,248.8,879.2,373.1,1016.5,643.3c184.4,356,150.1,733.4-90,1063.7C7871.4-2742.3,7395.3-2583.6,7026.5-2703.7z M7571.2-3162.6c184.4-85.8,334.5-381.7,295.9-579c-47.2-240.2-180.1-364.6-531.8-497.5c-544.7-205.8-501.8-210.2-506.1,47.2c-8.6,257.3-94.4,458.9-287.4,660.5c-120.1,128.7-124.4,141.5-47.2,171.6c42.9,17.1,218.8,81.5,381.7,145.8C7228.1-3072.5,7365.3-3063.9,7571.2-3162.6z M6254.5-3840.2c51.5-51.5,107.2-163,124.4-244.5c42.9-175.8-30-437.5-124.4-450.3c-111.5-21.4-347.4,154.4-411.7,308.8c-77.2,188.7-77.2,295.9,4.3,450.3c60.1,111.5,77.2,120.1,188.7,81.5C6104.4-3720.1,6198.7-3784.5,6254.5-3840.2z M5353.8-3986.1c0-244.4,111.5-518.9,283-694.8l154.4-158.7L5431-4963.9c-527.5-193-540.4-193-694.8-141.5c-424.6,137.3-540.4,656.2-210.1,952.1c64.3,60,699.1,325.9,797.7,330.3C5341-3818.8,5353.8-3891.7,5353.8-3986.1z"/></g></g>
</svg>