<?xml version="1.0" ?><svg height="48px" version="1.1" viewBox="0 0 48 48" width="48px" xmlns="http://www.w3.org/2000/svg" xmlns:xlink="http://www.w3.org/1999/xlink"><defs/><path d="M27.1409856,32.1517427 L29.089299,31.9420093 C34.1308291,31.3992951 38,27.1180187 38,22 C38,16.4758487 33.5251057,12 28.0041593,12 L19.9958407,12 C14.4783462,12 10,16.4786669 10,22 C10,27.082963 13.8109429,31.3415859 18.8083861,31.9305887 L20.7297106,32.1570376 L23.9337158,37.3536705 L27.1409856,32.1517427 Z M24.9795761,43.2790425 C24.4019634,44.2158827 23.4690231,44.2216485 22.8878555,43.2790425 L18.3401834,35.9030925 C11.3908278,35.0840356 6,29.1732151 6,22 C6,14.2680135 12.2707214,8 19.9958407,8 L28.0041593,8 C35.7338487,8 42,14.2663135 42,22 C42,29.2202761 36.5318182,35.1639415 29.5174204,35.9190323 L24.9795761,43.2790425 Z" fill="#000000" fill-rule="nonzero" id="Rectangle-154"/></svg>