<?xml version="1.0" encoding="utf-8"?><!DOCTYPE svg PUBLIC "-//W3C//DTD SVG 1.1//EN" "http://www.w3.org/Graphics/SVG/1.1/DTD/svg11.dtd"><svg version="1.1" xmlns="http://www.w3.org/2000/svg" xmlns:xlink="http://www.w3.org/1999/xlink" x="0px" y="0px" viewBox="0.157 21.737 100 71.52125" enable-background="new 0.157 21.737 100 57.217" xml:space="preserve"><path d="M13.523,49.273c-5.785,0-10.206,2.331-13.044,7.018l-0.023,0.062c-0.556,0.969-0.493,1.719,1.547,1.923
	c0.066,0.01,0.111,0.02,0.111,0.02c0.633,0.045,1.235,0.096,1.81,0.15c-1.653,2.15-2.638,4.844-2.638,7.766
	c0,7.038,5.707,12.742,12.742,12.742c6.769,0,12.305-5.278,12.717-11.941c1.075,0.019,2.236-0.013,3.477-0.111
	C29.917,57.11,22.558,49.273,13.523,49.273z M14.029,74.409c-4.528,0-8.197-3.67-8.197-8.197c0-2.91,1.515-5.466,3.8-6.92
	c3.137,0.693,4.767,1.595,5.834,2.535c-0.45-0.146-0.928-0.226-1.427-0.226c-2.556,0-4.627,2.071-4.627,4.626
	s2.071,4.626,4.627,4.626c2.554,0,4.626-2.071,4.626-4.626c0-0.392-0.051-0.777-0.143-1.139c0.854,0.586,2.095,1.092,3.698,1.437
	C22.054,70.909,18.452,74.409,14.029,74.409z"/><path d="M77.117,43.169h1.91c0.657,0,1.188-0.532,1.188-1.187v-5.119c0-0.655-0.532-1.187-1.188-1.187l-28.959,1.44
	c-0.655,0-1.187,0.531-1.187,1.185v3.68c0,0.472,0.275,0.879,0.667,1.091c5.291,1.846,8.976,5.966,8.976,10.756
	c0,3.692-1.218,9.081-7.498,9.147h-6.571c-7.319-0.274-10.786-6.484-10.786-13.942c0-1.743,0.292-3.546,0.766-5.088
	c0.033-0.107,0.065-0.216,0.093-0.324l2.557-6.237c0.242-0.681,0.357-1.455,0.309-2.265c-0.123-2.047-1.25-3.711-2.702-4.213
	l1.349-2.812l0.189-0.413l3.937,1.706c1.269,0.551,2.095-1.356,0.825-1.906l-4.533-1.962c-0.311-2.098-4.072-3.776-8.532-3.785
	l0.625,7.821c1.133-0.002,2.203-0.112,3.168-0.309l-5.061,10.557c-0.766,1.517-1.561,3.087-1.871,3.555
	c-1.119,1.687-2.302,1.814-2.302,1.814c-2.772,0.75-2.934,2.732-2.604,3.913c4.104,1.619,7.522,4.894,9.6,9.11
	c0.143,0.329,1.606,4.054,1.606,4.054c0.988,2.62,3.831,4.764,6.453,4.764l32.229,0.002c0.433,6.646,5.958,11.903,12.714,11.903
	c6.754,0,12.281-5.255,12.714-11.901h4.961C99.396,53.584,90.972,46.49,77.117,43.169z M78.698,56.802h7.422
	c0.76,0,0.76,1.14,0,1.14h-7.422C77.936,57.941,77.936,56.802,78.698,56.802z M75.4,59.08h13.884c0.762,0,0.762,1.141,0,1.141H75.4
	C74.642,60.221,74.642,59.08,75.4,59.08z M75.4,61.36h13.884c0.762,0,0.762,1.143,0,1.143H75.4
	C74.642,62.503,74.642,61.36,75.4,61.36z M86.12,64.781h-7.422c-0.763,0-0.763-1.139,0-1.139h7.422
	C86.88,63.643,86.88,64.781,86.12,64.781z M82.48,74.379c-4.244,0-7.735-3.226-8.156-7.36h3.57c0.393,2.175,2.297,3.823,4.586,3.823
	c2.287,0,4.19-1.648,4.585-3.821h3.569C90.216,71.153,86.724,74.379,82.48,74.379z"/><text x="0.157" y="93.954" fill="#000000" font-size="5px" font-weight="bold" font-family="'Helvetica Neue', Helvetica, Arial-Unicode, Arial, Sans-serif">Created by Simon Child</text><text x="0.157" y="98.954" fill="#000000" font-size="5px" font-weight="bold" font-family="'Helvetica Neue', Helvetica, Arial-Unicode, Arial, Sans-serif">from the Noun Project</text></svg>