<svg xmlns="http://www.w3.org/2000/svg" xmlns:xlink="http://www.w3.org/1999/xlink" version="1.1" x="0px" y="0px" viewBox="0 0 100 125" enable-background="new 0 0 100 100" xml:space="preserve"><path d="M63.215,71.938c5.264,0,9.547-4.282,9.547-9.546c0-5.265-4.283-9.548-9.547-9.548c-5.265,0-9.548,4.283-9.548,9.548  C53.667,67.656,57.95,71.938,63.215,71.938z"/><path d="M71.348,69.996h-0.504l-0.042,0.043c-1.585,1.575-3.584,2.605-5.782,2.979l-0.404,0.067l1.609,0.922l-2.788,3.16  l1.973,8.836l-2.195,4.506l-2.191-4.506l1.953-8.764l0.016-0.072l-2.787-3.16l1.612-0.922l-0.404-0.067  c-2.197-0.373-4.198-1.403-5.786-2.979l-0.043-0.043h-0.501c-4.284,0-7.769,3.485-7.769,7.771v14.247h31.802V77.766  C79.115,73.481,75.63,69.996,71.348,69.996z"/><path d="M78.688,68.473c0.656,0.486,1.393,0.821,2.19,0.995c0.393,0.09,0.807,0.135,1.228,0.135c3.164,0,5.738-2.574,5.738-5.738  c0-1.088-0.305-2.146-0.883-3.059c-0.45-0.714-1.068-1.332-1.788-1.787c-0.913-0.582-1.974-0.89-3.067-0.89  c-3.162,0-5.734,2.573-5.734,5.735C76.372,65.692,77.212,67.368,78.688,68.473z"/><path d="M87.008,68.463H86.71l-0.022,0.021c-0.963,0.955-2.171,1.576-3.493,1.798l-0.203,0.033l0.952,0.546l-1.688,1.912  l1.188,5.321l-1.338,2.746l-1.334-2.746l1.178-5.284l0.008-0.037l-1.688-1.912l0.958-0.548l-0.212-0.031  c-0.039-0.006-0.082-0.014-0.123-0.023c-0.096-0.017-0.191-0.037-0.288-0.061c-1.159-0.273-2.224-0.865-3.078-1.714l-0.021-0.021  h-0.298c-1.072,0-2.078,0.352-2.909,1.017l-0.102,0.082l0.122,0.045c3.414,1.251,5.707,4.53,5.707,8.159v3.929h11.647v-8.565  C91.674,70.556,89.581,68.463,87.008,68.463z"/><path d="M38.585,63.482c0,3.165,2.574,5.737,5.737,5.737s5.737-2.572,5.737-5.737c0-3.163-2.574-5.736-5.737-5.736  S38.585,60.319,38.585,63.482z"/><path d="M52.421,69.501l0.117-0.037l-0.088-0.085c-0.873-0.84-2.02-1.302-3.228-1.302h-0.298l-0.021,0.021  c-0.955,0.953-2.163,1.575-3.493,1.801l-0.203,0.035l0.952,0.542l-1.685,1.913l1.186,5.319l-1.336,2.746l-1.338-2.746l1.178-5.283  l0.008-0.036l-1.686-1.913l0.949-0.542L43.232,69.9c-1.328-0.226-2.535-0.849-3.491-1.801l-0.021-0.021h-0.297  c-2.573,0-4.666,2.095-4.666,4.667v8.568H46.4v-3.547C46.4,73.983,48.819,70.662,52.421,69.501z"/><path d="M21.101,18.032c0.38,0.298,0.839,0.456,1.326,0.456h16.358c1.192,0,2.162-0.97,2.162-2.161v-2.265  c0-0.456-0.14-0.89-0.404-1.254c-0.401-0.568-1.059-0.906-1.758-0.906h-1.362v-1.754c0-1.191-0.97-2.161-2.161-2.161h-9.311  c-1.192,0-2.162,0.97-2.162,2.161v1.754h-1.362c-1.192,0-2.162,0.968-2.162,2.16v2.265C20.265,17,20.57,17.622,21.101,18.032z"/><rect x="16.925" y="23.541" width="27.361" height="4.479"/><rect x="16.925" y="31.861" width="27.361" height="4.48"/><rect x="17.031" y="40.355" width="15.488" height="4.48"/><path d="M30.385,60.017c-0.566-0.466-1.208-0.857-1.908-1.162l-0.077-0.033l-0.023,0.08c-0.435,1.515-1.133,4.811-1.14,4.844  l-0.03,0.138l0.131-0.055c0.03-0.014,3.128-1.337,4.532-2.057l0.075-0.038l-0.048-0.068C31.459,61.035,30.95,60.481,30.385,60.017z"/><path d="M43.939,47.08c-0.025-0.249-0.146-0.475-0.34-0.634l-2.458-2.021c-0.168-0.138-0.38-0.214-0.598-0.214  c-0.283,0-0.548,0.126-0.727,0.345L29.218,57.449l0.087,0.04c0.771,0.358,1.475,0.795,2.089,1.302  c0.613,0.503,1.178,1.106,1.68,1.798l0.056,0.076l10.599-12.894C43.888,47.576,43.963,47.331,43.939,47.08z"/><path d="M43.475,14.062v2.265c0,0.271-0.037,0.524-0.078,0.76l-0.015,0.086l5.417,0.012l-0.006,38.553h4.165l0.002-38.626  c0-0.922-0.294-1.795-0.852-2.523c-0.229-0.301-0.497-0.568-0.795-0.795c-0.729-0.558-1.601-0.853-2.523-0.853h-5.462l0.021,0.091  C43.433,13.41,43.475,13.747,43.475,14.062z"/><path d="M12.489,17.184l5.413-0.012l-0.014-0.085c-0.043-0.267-0.079-0.507-0.079-0.761v-2.265c0-0.309,0.042-0.635,0.131-1.029  l0.001-0.093h-5.446c-2.3,0-4.17,1.871-4.17,4.171l0.006,49.423c0,0.702,0.178,1.395,0.514,2.003  c0.384,0.694,0.954,1.264,1.646,1.647c0.612,0.338,1.307,0.516,2.009,0.516h18.167v-4.159l-18.177-0.007L12.489,17.184z"/><text x="0" y="115" fill="#000000" font-size="5px" font-weight="bold" font-family="'Helvetica Neue', Helvetica, Arial-Unicode, Arial, Sans-serif">Created by YuguDesign </text><text x="0" y="120" fill="#000000" font-size="5px" font-weight="bold" font-family="'Helvetica Neue', Helvetica, Arial-Unicode, Arial, Sans-serif">from the Noun Project</text></svg>